HIERARCHY
ROOT sphere
{
	OFFSET 0.000000 0.000000 0.000000
	CHANNELS 6 Xposition Yposition Zposition Yrotation Xrotation Zrotation
	End Site
	{
		OFFSET 0.000000 0.000000 0.000000
	}
}
MOTION
Frames: 83
Frame Time: 0.008333334
-2.934575 0.679996 3.602489 68.048510 -4.718536 -10.457280 
-2.935927 0.679852 3.603733 68.033100 -4.718536 -10.336000 
-2.937299 0.679626 3.604861 67.994110 -4.833496 -10.197200 
-2.938499 0.679861 3.605927 67.927880 -4.879944 -10.135010 
-2.939749 0.679670 3.606776 67.919140 -4.914337 -10.104550 
-2.940936 0.679370 3.607695 67.896100 -4.976898 -10.058170 
-2.942231 0.679173 3.608661 67.892430 -4.958954 -9.914368 
-2.943769 0.679344 3.609897 67.878150 -4.984558 -9.851349 
-2.944304 0.679319 3.610997 67.884330 -4.943542 -9.768402 
-2.944853 0.679432 3.612169 67.893230 -4.987549 -9.721313 
-2.945546 0.679421 3.613433 67.852070 -5.001587 -9.522308 
-2.945985 0.679491 3.614634 67.852630 -5.026306 -9.439484 
-2.946048 0.679549 3.615485 67.840750 -5.052216 -9.423981 
-2.946275 0.679562 3.616319 67.829860 -5.015717 -9.357635 
-2.946458 0.679530 3.616997 67.822320 -4.983734 -9.378021 
-2.946188 0.679416 3.617437 67.810030 -4.965271 -9.386108 
-2.945444 0.679147 3.617842 67.828250 -4.939697 -9.511841 
-2.944354 0.679380 3.617992 67.866870 -4.930420 -9.449432 
-2.943207 0.679224 3.617891 67.882530 -4.775665 -9.431824 
-2.942352 0.679326 3.618092 67.862170 -4.773224 -9.511261 
-2.941481 0.679537 3.618139 67.887670 -4.698547 -9.533997 
-2.940962 0.679772 3.617957 67.893200 -4.620972 -9.503784 
-2.940229 0.679912 3.617727 67.871970 -4.610596 -9.505920 
-2.939628 0.680005 3.617598 67.875200 -4.579224 -9.499023 
-2.939210 0.680111 3.617185 67.862500 -4.567474 -9.530823 
-2.938636 0.680045 3.616750 67.854480 -4.626678 -9.614777 
-2.938191 0.679976 3.615844 67.857840 -4.601990 -9.675354 
-2.937482 0.679859 3.615289 67.866620 -4.591125 -9.752167 
-2.937096 0.679746 3.614252 67.839040 -4.576508 -9.814331 
-2.936608 0.679575 3.613329 67.867740 -4.560791 -9.852722 
-2.936303 0.679637 3.612751 67.850440 -4.554932 -9.914276 
-2.936237 0.679714 3.611853 67.864840 -4.572235 -9.945435 
-2.936173 0.679478 3.610935 67.863800 -4.611694 -9.992798 
-2.936229 0.679427 3.610018 67.895480 -4.632843 -10.060460 
-2.935887 0.679462 3.608714 67.872540 -4.663757 -10.094330 
-2.936098 0.679347 3.607725 67.880330 -4.680450 -10.103330 
-2.936278 0.679399 3.606858 67.900290 -4.733521 -10.266850 
-2.936482 0.679145 3.605417 67.956880 -4.773621 -10.312320 
-2.936377 0.679057 3.603873 68.028860 -4.747772 -10.370060 
-2.936411 0.679294 3.602828 68.104630 -4.760773 -10.445740 
-2.936155 0.679258 3.601406 68.032260 -4.918274 -10.565460 
-2.936289 0.679100 3.600158 68.035080 -4.940338 -10.527740 
-2.936093 0.678956 3.599178 68.026120 -5.009552 -10.736570 
-2.935696 0.678958 3.598497 68.014430 -4.958954 -10.771300 
-2.935146 0.678924 3.597211 67.941000 -4.989166 -10.806370 
-2.934299 0.679041 3.596533 67.951430 -4.947998 -10.900390 
-2.933944 0.679085 3.596043 67.915680 -4.866089 -10.965180 
-2.932582 0.679300 3.595442 67.940060 -4.817932 -11.054440 
-2.931639 0.679731 3.595092 68.013120 -4.651184 -11.039760 
-2.930554 0.679499 3.595079 67.992890 -4.671417 -11.095550 
-2.929658 0.679625 3.595140 68.048360 -4.617859 -11.149140 
-2.928509 0.679523 3.595178 67.988230 -4.561859 -11.148830 
-2.927978 0.679745 3.595638 67.966880 -4.479828 -11.133120 
-2.926778 0.679996 3.595887 67.968110 -4.449005 -11.135960 
-2.925901 0.680226 3.596285 67.955530 -4.373047 -11.125090 
-2.925289 0.680354 3.596711 67.924400 -4.234558 -11.174350 
-2.924431 0.680232 3.597092 67.958970 -4.287201 -11.078770 
-2.924061 0.680103 3.597337 67.958820 -4.228485 -11.059450 
-2.923696 0.680155 3.597421 67.946200 -4.212860 -11.079710 
-2.923830 0.680223 3.597484 67.962460 -4.219513 -11.048400 
-2.924010 0.680276 3.597569 67.976840 -4.239532 -11.009060 
-2.924509 0.680138 3.597378 67.966420 -4.233582 -11.009520 
-2.924930 0.680111 3.597203 67.942320 -4.261108 -11.050110 
-2.926147 0.680401 3.596673 67.980450 -4.277649 -11.139100 
-2.927193 0.680082 3.596119 67.944410 -4.423431 -11.071380 
-2.928101 0.679753 3.595832 67.991910 -4.545654 -11.167210 
-2.929193 0.679523 3.595603 68.000530 -4.591431 -11.137940 
-2.930142 0.679506 3.595414 67.999280 -4.635956 -11.130160 
-2.931184 0.679425 3.595315 67.953660 -4.740723 -11.082370 
-2.931716 0.679560 3.595653 67.986530 -4.782959 -11.064210 
-2.932778 0.679249 3.595944 67.930510 -4.858093 -11.039250 
-2.933383 0.678991 3.596745 67.971240 -4.912292 -11.026860 
-2.933806 0.679110 3.597189 67.988880 -4.938995 -10.968200 
-2.933911 0.678763 3.597726 67.975370 -4.909485 -10.869960 
-2.934546 0.678953 3.598564 67.936740 -4.978394 -10.851960 
-2.934678 0.679154 3.599576 67.990550 -4.855408 -10.717650 
-2.934693 0.679297 3.600637 68.054510 -4.777924 -10.641330 
-2.934609 0.678974 3.601728 68.004040 -4.698273 -10.564000 
-2.934260 0.678756 3.602739 68.000210 -4.681366 -10.546970 
-2.934117 0.678752 3.603819 67.965520 -4.632996 -10.499450 
-2.933676 0.678897 3.604597 68.010690 -4.492981 -10.474060 
-2.933771 0.679126 3.605635 68.029820 -4.542694 -10.452180 
-2.933659 0.679193 3.606457 67.965820 -4.511902 -10.363770 
